<svg xmlns="http://www.w3.org/2000/svg" xmlns:xlink="http://www.w3.org/1999/xlink" width="500" zoomAndPan="magnify" viewBox="0 0 375 149.999998" height="200" preserveAspectRatio="xMidYMid meet" version="1.0"><defs><clipPath id="6d2a6eb448"><path d="M 309 33 L 324.402344 33 L 324.402344 150 L 309 150 Z M 309 33 " clip-rule="nonzero"/></clipPath></defs><path fill="#737373" d="M 117.699219 104.808594 C 119.09375 106.820312 129.800781 111.628906 138.335938 111.628906 C 152.453125 111.628906 164.394531 99.839844 164.394531 85.410156 C 164.394531 71.140625 152.453125 59.195312 138.335938 59.195312 C 130.113281 59.195312 122.664062 63.226562 117.699219 69.433594 Z M 117.699219 61.210938 C 123.285156 56.558594 130.574219 53.609375 138.335938 53.609375 C 155.863281 53.609375 170.136719 67.882812 170.136719 85.410156 C 170.136719 102.941406 155.863281 117.21875 138.335938 117.21875 C 122.664062 117.21875 112.117188 109.613281 112.117188 109.613281 L 112.117188 16.53125 L 117.699219 16.53125 L 117.699219 61.210938 " fill-opacity="1" fill-rule="nonzero"/><path fill="#737373" d="M 207.953125 59.675781 C 193.835938 59.675781 181.890625 71.777344 181.890625 85.890625 C 181.890625 100.011719 193.835938 112.109375 207.953125 112.109375 C 222.222656 112.109375 234.171875 100.167969 234.171875 85.890625 C 234.171875 71.621094 222.222656 59.675781 207.953125 59.675781 Z M 207.953125 117.699219 C 190.421875 117.699219 176.148438 103.421875 176.148438 85.890625 C 176.148438 68.363281 190.421875 54.089844 207.953125 54.089844 C 225.484375 54.089844 239.910156 68.363281 239.910156 85.890625 C 239.910156 103.421875 225.484375 117.699219 207.953125 117.699219 " fill-opacity="1" fill-rule="nonzero"/><path fill="#737373" d="M 277.785156 59.675781 C 263.667969 59.675781 251.722656 71.777344 251.722656 85.890625 C 251.722656 100.011719 263.667969 112.109375 277.785156 112.109375 C 292.058594 112.109375 304.003906 100.167969 304.003906 85.890625 C 304.003906 71.621094 292.058594 59.675781 277.785156 59.675781 Z M 277.785156 117.699219 C 260.253906 117.699219 245.984375 103.421875 245.984375 85.890625 C 245.984375 68.363281 260.253906 54.089844 277.785156 54.089844 C 295.3125 54.089844 309.742188 68.363281 309.742188 85.890625 C 309.742188 103.421875 295.3125 117.699219 277.785156 117.699219 " fill-opacity="1" fill-rule="nonzero"/><g clip-path="url(#6d2a6eb448)"><path fill="#737373" d="M 327.828125 39.648438 L 321.933594 45.542969 L 316.039062 39.648438 L 321.933594 33.75 Z M 309.367188 143.898438 C 315.261719 139.089844 319.140625 131.796875 319.140625 123.886719 L 319.140625 56.246094 L 324.726562 56.246094 L 324.726562 123.886719 C 324.726562 134.125 319.761719 143.277344 312.3125 149.175781 L 309.367188 143.898438 " fill-opacity="1" fill-rule="nonzero"/></g><path fill="#737373" d="M 85.507812 57.46875 C 81.457031 47.996094 76.136719 39.082031 70.757812 30.316406 C 67.980469 25.785156 65.292969 21.441406 63.261719 16.535156 C 60.511719 22.628906 56.921875 28.3125 53.394531 34.015625 C 49.949219 28.308594 46.207031 22.710938 43.644531 16.535156 C 40.414062 23.699219 36.015625 30.296875 31.933594 37.023438 C 25.496094 47.617188 18.875 58.488281 15.746094 70.609375 C 12.816406 81.960938 13.65625 94.242188 20.394531 104.117188 C 26.351562 112.847656 36.46875 118.574219 47.195312 116.933594 C 47.183594 116.933594 47.171875 116.933594 47.160156 116.929688 C 47.117188 116.925781 47.074219 116.925781 47.03125 116.917969 C 38.808594 115.605469 31.320312 110.207031 26.5 101.917969 C 20.636719 92.015625 20.003906 79.15625 24.730469 65.722656 C 27.09375 58.835938 30.480469 52.257812 33.882812 46.328125 C 34.601562 45.074219 41.011719 33.609375 43.539062 29.085938 C 45.558594 32.6875 47.660156 36.335938 49.726562 40.03125 C 43.894531 49.683594 38.195312 59.632812 35.359375 70.609375 C 32.433594 81.960938 33.269531 94.242188 40.007812 104.117188 C 45.972656 112.855469 56.109375 118.585938 66.847656 116.929688 C 57.992188 115.554688 50.621094 109.539062 46.1875 101.917969 C 39.464844 90.566406 40.453125 76.796875 44.746094 64.785156 C 47.050781 58.351562 50.179688 52.246094 53.574219 46.328125 C 54.269531 45.109375 61.09375 32.773438 63.152344 29.085938 C 70.210938 41.683594 78.417969 54.796875 81.863281 68.9375 C 84.984375 81.765625 82.070312 100.386719 67.011719 104.226562 C 76.964844 106.804688 85.65625 98.820312 88.882812 90.035156 C 92.824219 79.300781 89.832031 67.582031 85.507812 57.46875 Z M 57.175781 54.5625 C 58.367188 52.003906 59.613281 49.542969 60.851562 47.214844 C 63.964844 53.09375 67.199219 59.808594 69.199219 66.914062 C 72.128906 77.082031 71.511719 86.628906 67.453125 93.8125 C 65.804688 96.730469 63.546875 99.445312 60.820312 101.417969 C 59.535156 100.488281 58.328125 99.371094 57.21875 98.089844 C 63.601562 90.539062 64.507812 78.222656 62.246094 68.9375 C 61.050781 64.03125 59.273438 59.246094 57.175781 54.5625 " fill-opacity="1" fill-rule="nonzero"/></svg>