<svg xmlns="http://www.w3.org/2000/svg" xmlns:xlink="http://www.w3.org/1999/xlink" width="500" zoomAndPan="magnify" viewBox="0 0 375 374.999991" height="500" preserveAspectRatio="xMidYMid meet" version="1.0"><defs><g/><clipPath id="10d4882e89"><path d="M 7.042969 7.042969 L 367.792969 7.042969 L 367.792969 23.601562 L 7.042969 23.601562 Z M 351.230469 23.601562 L 367.792969 23.601562 L 367.792969 351.230469 L 351.230469 351.230469 Z M 7.042969 23.601562 L 23.601562 23.601562 L 23.601562 351.230469 L 7.042969 351.230469 Z M 7.042969 351.230469 L 367.792969 351.230469 L 367.792969 367.792969 L 7.042969 367.792969 Z M 7.042969 351.230469 " clip-rule="nonzero"/></clipPath><linearGradient x1="17.709474" gradientTransform="matrix(1.656108, 0, 0, 1.656108, 7.042434, 7.04242)" y1="-13.223855" x2="200.116561" gradientUnits="userSpaceOnUse" y2="231.056822" id="bc123c5411"><stop stop-opacity="1" stop-color="rgb(84.298706%, 81.999207%, 90.19928%)" offset="0"/><stop stop-opacity="1" stop-color="rgb(84.481812%, 82.115173%, 90.25116%)" offset="0.125"/><stop stop-opacity="1" stop-color="rgb(84.806824%, 82.324219%, 90.344238%)" offset="0.132813"/><stop stop-opacity="1" stop-color="rgb(85.092163%, 82.505798%, 90.426636%)" offset="0.140625"/><stop stop-opacity="1" stop-color="rgb(85.375977%, 82.687378%, 90.507507%)" offset="0.148438"/><stop stop-opacity="1" stop-color="rgb(85.661316%, 82.868958%, 90.589905%)" offset="0.15625"/><stop stop-opacity="1" stop-color="rgb(85.945129%, 83.052063%, 90.670776%)" offset="0.164062"/><stop stop-opacity="1" stop-color="rgb(86.230469%, 83.233643%, 90.753174%)" offset="0.171875"/><stop stop-opacity="1" stop-color="rgb(86.514282%, 83.415222%, 90.834045%)" offset="0.179688"/><stop stop-opacity="1" stop-color="rgb(86.799622%, 83.598328%, 90.916443%)" offset="0.1875"/><stop stop-opacity="1" stop-color="rgb(87.084961%, 83.779907%, 90.997314%)" offset="0.195312"/><stop stop-opacity="1" stop-color="rgb(87.368774%, 83.961487%, 91.079712%)" offset="0.203125"/><stop stop-opacity="1" stop-color="rgb(87.654114%, 84.143066%, 91.162109%)" offset="0.210938"/><stop stop-opacity="1" stop-color="rgb(87.937927%, 84.326172%, 91.242981%)" offset="0.21875"/><stop stop-opacity="1" stop-color="rgb(88.223267%, 84.507751%, 91.325378%)" offset="0.226562"/><stop stop-opacity="1" stop-color="rgb(88.50708%, 84.689331%, 91.40625%)" offset="0.234375"/><stop stop-opacity="1" stop-color="rgb(88.792419%, 84.872437%, 91.488647%)" offset="0.242188"/><stop stop-opacity="1" stop-color="rgb(89.077759%, 85.054016%, 91.569519%)" offset="0.25"/><stop stop-opacity="1" stop-color="rgb(89.361572%, 85.235596%, 91.651917%)" offset="0.257813"/><stop stop-opacity="1" stop-color="rgb(89.646912%, 85.417175%, 91.732788%)" offset="0.265625"/><stop stop-opacity="1" stop-color="rgb(89.930725%, 85.600281%, 91.815186%)" offset="0.273438"/><stop stop-opacity="1" stop-color="rgb(90.216064%, 85.78186%, 91.896057%)" offset="0.28125"/><stop stop-opacity="1" stop-color="rgb(90.501404%, 85.96344%, 91.978455%)" offset="0.289063"/><stop stop-opacity="1" stop-color="rgb(90.785217%, 86.146545%, 92.059326%)" offset="0.296875"/><stop stop-opacity="1" stop-color="rgb(91.070557%, 86.328125%, 92.141724%)" offset="0.304688"/><stop stop-opacity="1" stop-color="rgb(91.35437%, 86.509705%, 92.222595%)" offset="0.3125"/><stop stop-opacity="1" stop-color="rgb(91.639709%, 86.691284%, 92.304993%)" offset="0.320313"/><stop stop-opacity="1" stop-color="rgb(91.923523%, 86.87439%, 92.385864%)" offset="0.328125"/><stop stop-opacity="1" stop-color="rgb(92.208862%, 87.055969%, 92.468262%)" offset="0.335938"/><stop stop-opacity="1" stop-color="rgb(92.494202%, 87.237549%, 92.549133%)" offset="0.34375"/><stop stop-opacity="1" stop-color="rgb(92.778015%, 87.420654%, 92.631531%)" offset="0.351563"/><stop stop-opacity="1" stop-color="rgb(93.063354%, 87.602234%, 92.713928%)" offset="0.359375"/><stop stop-opacity="1" stop-color="rgb(93.347168%, 87.783813%, 92.7948%)" offset="0.367188"/><stop stop-opacity="1" stop-color="rgb(93.632507%, 87.965393%, 92.877197%)" offset="0.375"/><stop stop-opacity="1" stop-color="rgb(93.916321%, 88.148499%, 92.958069%)" offset="0.382813"/><stop stop-opacity="1" stop-color="rgb(94.20166%, 88.330078%, 93.040466%)" offset="0.390625"/><stop stop-opacity="1" stop-color="rgb(94.487%, 88.511658%, 93.121338%)" offset="0.398438"/><stop stop-opacity="1" stop-color="rgb(94.770813%, 88.694763%, 93.203735%)" offset="0.40625"/><stop stop-opacity="1" stop-color="rgb(95.056152%, 88.876343%, 93.284607%)" offset="0.414062"/><stop stop-opacity="1" stop-color="rgb(95.339966%, 89.057922%, 93.367004%)" offset="0.421875"/><stop stop-opacity="1" stop-color="rgb(95.625305%, 89.239502%, 93.447876%)" offset="0.427495"/><stop stop-opacity="1" stop-color="rgb(95.767212%, 89.331055%, 93.489075%)" offset="0.429688"/><stop stop-opacity="1" stop-color="rgb(95.909119%, 89.422607%, 93.530273%)" offset="0.4375"/><stop stop-opacity="1" stop-color="rgb(95.970154%, 89.620972%, 93.644714%)" offset="0.46875"/><stop stop-opacity="1" stop-color="rgb(95.76416%, 89.712524%, 93.721008%)" offset="0.476562"/><stop stop-opacity="1" stop-color="rgb(95.513916%, 89.682007%, 93.728638%)" offset="0.484375"/><stop stop-opacity="1" stop-color="rgb(95.262146%, 89.653015%, 93.736267%)" offset="0.492188"/><stop stop-opacity="1" stop-color="rgb(95.011902%, 89.624023%, 93.743896%)" offset="0.5"/><stop stop-opacity="1" stop-color="rgb(94.761658%, 89.593506%, 93.751526%)" offset="0.507812"/><stop stop-opacity="1" stop-color="rgb(94.511414%, 89.564514%, 93.759155%)" offset="0.515625"/><stop stop-opacity="1" stop-color="rgb(94.259644%, 89.535522%, 93.766785%)" offset="0.523438"/><stop stop-opacity="1" stop-color="rgb(94.009399%, 89.505005%, 93.774414%)" offset="0.53125"/><stop stop-opacity="1" stop-color="rgb(93.759155%, 89.476013%, 93.782043%)" offset="0.539063"/><stop stop-opacity="1" stop-color="rgb(93.508911%, 89.445496%, 93.789673%)" offset="0.546875"/><stop stop-opacity="1" stop-color="rgb(93.257141%, 89.416504%, 93.797302%)" offset="0.554688"/><stop stop-opacity="1" stop-color="rgb(93.006897%, 89.387512%, 93.804932%)" offset="0.5625"/><stop stop-opacity="1" stop-color="rgb(92.756653%, 89.356995%, 93.812561%)" offset="0.570313"/><stop stop-opacity="1" stop-color="rgb(92.504883%, 89.328003%, 93.82019%)" offset="0.572505"/><stop stop-opacity="1" stop-color="rgb(92.379761%, 89.31427%, 93.824768%)" offset="0.578125"/><stop stop-opacity="1" stop-color="rgb(92.254639%, 89.299011%, 93.82782%)" offset="0.585938"/><stop stop-opacity="1" stop-color="rgb(92.004395%, 89.268494%, 93.835449%)" offset="0.59375"/><stop stop-opacity="1" stop-color="rgb(91.75415%, 89.239502%, 93.843079%)" offset="0.601563"/><stop stop-opacity="1" stop-color="rgb(91.50238%, 89.21051%, 93.850708%)" offset="0.609375"/><stop stop-opacity="1" stop-color="rgb(91.252136%, 89.179993%, 93.858337%)" offset="0.617188"/><stop stop-opacity="1" stop-color="rgb(91.001892%, 89.151001%, 93.865967%)" offset="0.625"/><stop stop-opacity="1" stop-color="rgb(90.750122%, 89.120483%, 93.873596%)" offset="0.632813"/><stop stop-opacity="1" stop-color="rgb(90.499878%, 89.091492%, 93.881226%)" offset="0.640625"/><stop stop-opacity="1" stop-color="rgb(90.249634%, 89.0625%, 93.888855%)" offset="0.648438"/><stop stop-opacity="1" stop-color="rgb(89.99939%, 89.031982%, 93.896484%)" offset="0.65625"/><stop stop-opacity="1" stop-color="rgb(89.74762%, 89.002991%, 93.904114%)" offset="0.664063"/><stop stop-opacity="1" stop-color="rgb(89.497375%, 88.973999%, 93.911743%)" offset="0.671875"/><stop stop-opacity="1" stop-color="rgb(89.247131%, 88.943481%, 93.919373%)" offset="0.679688"/><stop stop-opacity="1" stop-color="rgb(88.995361%, 88.91449%, 93.927002%)" offset="0.6875"/><stop stop-opacity="1" stop-color="rgb(88.745117%, 88.885498%, 93.934631%)" offset="0.695313"/><stop stop-opacity="1" stop-color="rgb(88.494873%, 88.85498%, 93.942261%)" offset="0.703125"/><stop stop-opacity="1" stop-color="rgb(88.244629%, 88.825989%, 93.94989%)" offset="0.710938"/><stop stop-opacity="1" stop-color="rgb(87.992859%, 88.795471%, 93.95752%)" offset="0.71875"/><stop stop-opacity="1" stop-color="rgb(87.742615%, 88.766479%, 93.965149%)" offset="0.726562"/><stop stop-opacity="1" stop-color="rgb(87.492371%, 88.737488%, 93.972778%)" offset="0.734375"/><stop stop-opacity="1" stop-color="rgb(87.240601%, 88.70697%, 93.980408%)" offset="0.742188"/><stop stop-opacity="1" stop-color="rgb(86.990356%, 88.677979%, 93.988037%)" offset="0.75"/><stop stop-opacity="1" stop-color="rgb(86.740112%, 88.648987%, 93.995667%)" offset="0.757813"/><stop stop-opacity="1" stop-color="rgb(86.489868%, 88.618469%, 94.003296%)" offset="0.765625"/><stop stop-opacity="1" stop-color="rgb(86.238098%, 88.589478%, 94.010925%)" offset="0.773438"/><stop stop-opacity="1" stop-color="rgb(85.987854%, 88.560486%, 94.018555%)" offset="0.78125"/><stop stop-opacity="1" stop-color="rgb(85.73761%, 88.529968%, 94.026184%)" offset="0.789062"/><stop stop-opacity="1" stop-color="rgb(85.48584%, 88.500977%, 94.033813%)" offset="0.796875"/><stop stop-opacity="1" stop-color="rgb(85.235596%, 88.470459%, 94.041443%)" offset="0.804688"/><stop stop-opacity="1" stop-color="rgb(84.985352%, 88.441467%, 94.049072%)" offset="0.8125"/><stop stop-opacity="1" stop-color="rgb(84.735107%, 88.412476%, 94.056702%)" offset="0.820312"/><stop stop-opacity="1" stop-color="rgb(84.483337%, 88.381958%, 94.064331%)" offset="0.828125"/><stop stop-opacity="1" stop-color="rgb(84.233093%, 88.352966%, 94.07196%)" offset="0.835938"/><stop stop-opacity="1" stop-color="rgb(83.982849%, 88.323975%, 94.07959%)" offset="0.84375"/><stop stop-opacity="1" stop-color="rgb(83.731079%, 88.293457%, 94.087219%)" offset="0.851562"/><stop stop-opacity="1" stop-color="rgb(83.480835%, 88.264465%, 94.094849%)" offset="0.859375"/><stop stop-opacity="1" stop-color="rgb(83.230591%, 88.235474%, 94.102478%)" offset="0.867188"/><stop stop-opacity="1" stop-color="rgb(82.980347%, 88.204956%, 94.110107%)" offset="0.875"/><stop stop-opacity="1" stop-color="rgb(82.728577%, 88.175964%, 94.117737%)" offset="0.882812"/><stop stop-opacity="1" stop-color="rgb(82.478333%, 88.145447%, 94.125366%)" offset="0.890625"/><stop stop-opacity="1" stop-color="rgb(82.228088%, 88.116455%, 94.132996%)" offset="0.898438"/><stop stop-opacity="1" stop-color="rgb(81.977844%, 88.087463%, 94.140625%)" offset="0.90625"/><stop stop-opacity="1" stop-color="rgb(81.726074%, 88.056946%, 94.148254%)" offset="0.914062"/><stop stop-opacity="1" stop-color="rgb(81.47583%, 88.027954%, 94.155884%)" offset="0.921875"/><stop stop-opacity="1" stop-color="rgb(81.225586%, 87.998962%, 94.163513%)" offset="0.929688"/><stop stop-opacity="1" stop-color="rgb(80.973816%, 87.968445%, 94.171143%)" offset="0.9375"/><stop stop-opacity="1" stop-color="rgb(80.723572%, 87.939453%, 94.178772%)" offset="0.945312"/><stop stop-opacity="1" stop-color="rgb(80.473328%, 87.910461%, 94.186401%)" offset="0.953125"/><stop stop-opacity="1" stop-color="rgb(80.223083%, 87.879944%, 94.194031%)" offset="0.960938"/><stop stop-opacity="1" stop-color="rgb(79.971313%, 87.850952%, 94.20166%)" offset="0.96875"/><stop stop-opacity="1" stop-color="rgb(79.721069%, 87.820435%, 94.20929%)" offset="0.976562"/><stop stop-opacity="1" stop-color="rgb(79.470825%, 87.791443%, 94.216919%)" offset="0.984375"/><stop stop-opacity="1" stop-color="rgb(79.219055%, 87.762451%, 94.224548%)" offset="0.992188"/><stop stop-opacity="1" stop-color="rgb(78.968811%, 87.731934%, 94.232178%)" offset="1"/></linearGradient></defs><g clip-path="url(#10d4882e89)"><path fill="url(#bc123c5411)" d="M 7.042969 7.042969 L 7.042969 367.792969 L 367.792969 367.792969 L 367.792969 7.042969 Z M 7.042969 7.042969 " fill-rule="nonzero"/></g><g fill="#f5af02" fill-opacity="1"><g transform="translate(54.252618, 122.365981)"><g><path d="M 49.277344 -61.375 L 1.839844 -61.375 L 1.839844 -49.015625 L 18.9375 -49.015625 L 18.9375 0 L 32.179688 0 L 32.179688 -49.015625 L 49.277344 -49.015625 Z M 49.277344 -61.375 "/></g></g></g><g fill="#f5af02" fill-opacity="1"><g transform="translate(109.133932, 122.365981)"><g><path d="M 58.132812 -61.375 L 43.929688 -61.375 L 29.722656 -36.738281 L 15.605469 -61.375 L 1.492188 -61.375 L 22.886719 -24.8125 L 22.886719 0 L 36.476562 0 L 36.476562 -24.726562 Z M 58.132812 -61.375 "/></g></g></g><g fill="#f5af02" fill-opacity="1"><g transform="translate(172.343797, 122.365981)"><g><path d="M 20.253906 -12.273438 L 20.253906 -61.375 L 7.015625 -61.375 L 7.015625 0 L 43.839844 0 L 43.839844 -12.273438 Z M 20.253906 -12.273438 "/></g></g></g><g fill="#f5af02" fill-opacity="1"><g transform="translate(221.789652, 122.365981)"><g><path d="M 40.773438 0 L 55.589844 0 L 42 -23.148438 C 48.839844 -26.480469 53.222656 -32.96875 53.222656 -41.035156 C 53.222656 -52.871094 44.015625 -61.375 31.742188 -61.375 L 7.015625 -61.375 L 7.015625 0 L 20.253906 0 L 20.253906 -20.867188 L 28.757812 -20.867188 Z M 20.253906 -49.101562 L 30.863281 -49.101562 C 36.476562 -49.101562 39.71875 -45.683594 39.71875 -41.121094 C 39.71875 -36.476562 36.476562 -33.144531 30.863281 -33.144531 L 20.253906 -33.144531 Z M 20.253906 -49.101562 "/></g></g></g><g fill="#f5af02" fill-opacity="1"><g transform="translate(54.252618, 216.540364)"><g><path d="M 30.164062 -61.375 L 7.015625 -61.375 L 7.015625 0 L 30.164062 0 C 48.226562 0 61.289062 -12.890625 61.289062 -30.6875 C 61.289062 -48.488281 48.226562 -61.375 30.164062 -61.375 Z M 29.898438 -12.273438 L 20.253906 -12.273438 L 20.253906 -49.015625 L 29.898438 -49.015625 C 40.421875 -49.015625 47.699219 -41.5625 47.699219 -30.6875 C 47.699219 -19.992188 40.421875 -12.273438 29.898438 -12.273438 Z M 29.898438 -12.273438 "/></g></g></g><g fill="#f5af02" fill-opacity="1"><g transform="translate(122.89795, 216.540364)"><g><path d="M 31.742188 1.402344 C 46.207031 1.402344 57.082031 -8.679688 57.082031 -23.058594 L 57.082031 -61.375 L 43.753906 -61.375 L 43.753906 -23.675781 C 43.753906 -16.046875 38.753906 -11.136719 31.742188 -11.136719 C 24.636719 -11.136719 19.640625 -16.046875 19.640625 -23.675781 L 19.640625 -61.375 L 6.3125 -61.375 L 6.3125 -23.058594 C 6.3125 -8.679688 17.183594 1.402344 31.742188 1.402344 Z M 31.742188 1.402344 "/></g></g></g><g fill="#f5af02" fill-opacity="1"><g transform="translate(190.0529, 216.540364)"><g><path d="M 33.933594 -32.003906 L 33.933594 -21.832031 L 52.347656 -21.832031 C 50.066406 -15.519531 43.140625 -11.3125 35.246094 -11.3125 C 24.199219 -11.3125 16.921875 -19.203125 16.921875 -30.601562 C 16.921875 -42.085938 24.375 -49.976562 35.246094 -49.976562 C 42.964844 -49.976562 49.453125 -45.855469 52.082031 -39.28125 L 65.761719 -39.28125 C 62.867188 -53.046875 50.242188 -62.691406 34.984375 -62.691406 C 16.835938 -62.691406 3.417969 -48.925781 3.417969 -30.601562 C 3.417969 -12.1875 17.183594 1.402344 35.246094 1.402344 C 53.660156 1.402344 66.550781 -12.800781 66.550781 -32.003906 Z M 33.933594 -32.003906 "/></g></g></g><g fill="#f5af02" fill-opacity="1"><g transform="translate(54.252618, 310.714748)"><g><path d="M 36.125 1.402344 C 54.800781 1.402344 68.742188 -12.363281 68.742188 -30.6875 C 68.742188 -48.925781 54.800781 -62.691406 36.125 -62.691406 C 17.359375 -62.691406 3.332031 -48.839844 3.332031 -30.6875 C 3.332031 -12.449219 17.359375 1.402344 36.125 1.402344 Z M 36.125 -11.136719 C 25.164062 -11.136719 16.835938 -19.640625 16.835938 -30.6875 C 16.835938 -41.734375 25.164062 -50.152344 36.125 -50.152344 C 47.085938 -50.152344 55.238281 -41.824219 55.238281 -30.6875 C 55.238281 -19.554688 47.085938 -11.136719 36.125 -11.136719 Z M 36.125 -11.136719 "/></g></g></g><g fill="#f5af02" fill-opacity="1"><g transform="translate(130.086793, 310.714748)"><g><path d="M 20.253906 -12.273438 L 20.253906 -61.375 L 7.015625 -61.375 L 7.015625 0 L 43.839844 0 L 43.839844 -12.273438 Z M 20.253906 -12.273438 "/></g></g></g><g fill="#f5af02" fill-opacity="1"><g transform="translate(179.532641, 310.714748)"><g><path d="M 82.15625 0 L 72.6875 -61.375 L 59.359375 -61.375 L 42.699219 -23.675781 L 26.042969 -61.375 L 12.800781 -61.375 L 3.15625 0 L 16.660156 0 L 22.710938 -39.984375 L 41.035156 -0.0859375 L 44.277344 -0.0859375 L 62.605469 -39.984375 L 68.65625 0 Z M 82.15625 0 "/></g></g></g><g fill="#f5af02" fill-opacity="1"><g transform="translate(268.692482, 310.714748)"><g><path d="M 5.171875 0 L 18.765625 0 L 18.765625 -13.679688 L 5.171875 -13.679688 Z M 5.171875 0 "/></g></g></g></svg>