<svg xmlns="http://www.w3.org/2000/svg" xmlns:xlink="http://www.w3.org/1999/xlink" width="500" zoomAndPan="magnify" viewBox="0 0 375 149.999998" height="200" preserveAspectRatio="xMidYMid meet" version="1.0"><defs><clipPath id="7b4ca446ea"><path d="M 7.621094 41.96875 L 367.621094 41.96875 L 367.621094 107.96875 L 7.621094 107.96875 Z M 7.621094 41.96875 " clip-rule="nonzero"/></clipPath><clipPath id="5162e03953"><path d="M 116 42 L 170 42 L 170 107.96875 L 116 107.96875 Z M 116 42 " clip-rule="nonzero"/></clipPath></defs><g clip-path="url(#7b4ca446ea)"><path fill="#a6a6a6" d="M 58.328125 64.226562 L 58.328125 63.742188 C 58.328125 57.449219 56.390625 52.128906 52.519531 48.496094 C 48.164062 44.382812 41.628906 42.207031 33.886719 42.207031 L 7.996094 42.207031 L 7.996094 107.78125 L 22.757812 107.78125 L 22.757812 86.488281 L 31.226562 86.488281 L 43.808594 107.78125 L 60.503906 107.78125 L 45.984375 83.582031 C 51.550781 80.921875 58.328125 75.597656 58.328125 64.226562 Z M 43.566406 64.46875 C 43.566406 70.515625 39.453125 74.144531 32.675781 74.144531 L 22.757812 74.144531 L 22.757812 55.03125 L 32.675781 55.03125 C 39.695312 55.03125 43.566406 58.175781 43.566406 64.46875 Z M 265.699219 41.964844 L 241.015625 107.78125 L 255.777344 107.78125 L 260.859375 93.746094 L 283.847656 93.746094 L 288.925781 107.78125 L 304.171875 107.78125 L 279.492188 41.964844 Z M 279.25 81.40625 L 265.214844 81.40625 L 272.230469 61.324219 Z M 347 74.390625 L 366.601562 42.449219 L 350.390625 42.449219 L 338.773438 63.257812 L 327.402344 42.449219 L 310.464844 42.449219 L 329.820312 74.632812 L 309.496094 108.023438 L 325.707031 108.023438 L 338.050781 86.003906 L 350.390625 108.023438 L 367.085938 108.023438 Z M 88.570312 95.199219 L 88.570312 81.164062 L 114.945312 81.164062 L 114.945312 68.582031 L 88.570312 68.582031 L 88.570312 55.03125 L 118.332031 55.03125 L 118.332031 42.207031 L 74.050781 42.207031 L 74.050781 107.78125 L 101.636719 107.78125 L 108.410156 95.199219 Z M 214.394531 42.207031 L 199.632812 63.5 L 184.628906 42.207031 L 184.386719 42.207031 L 169.386719 70.757812 L 169.386719 107.78125 L 183.660156 107.78125 L 183.660156 67.128906 L 199.148438 87.210938 L 199.148438 87.453125 L 199.875 87.453125 L 215.601562 67.128906 L 215.601562 107.78125 L 229.878906 107.78125 L 229.878906 42.207031 Z M 214.394531 42.207031 " fill-opacity="1" fill-rule="nonzero"/></g><g clip-path="url(#5162e03953)"><path fill="#a6a6a6" d="M 151.273438 42.199219 L 116.671875 107.773438 L 134.578125 107.773438 L 169.179688 42.199219 Z M 151.273438 42.199219 " fill-opacity="1" fill-rule="nonzero"/></g></svg>