<svg xmlns="http://www.w3.org/2000/svg" xmlns:xlink="http://www.w3.org/1999/xlink" width="500" zoomAndPan="magnify" viewBox="0 0 375 149.999998" height="200" preserveAspectRatio="xMidYMid meet" version="1.0"><defs><clipPath id="f42d976690"><path d="M 100.847656 51.085938 L 144 51.085938 L 144 103 L 100.847656 103 Z M 100.847656 51.085938 " clip-rule="nonzero"/></clipPath><clipPath id="fcc99d360f"><path d="M 231 51.085938 L 269 51.085938 L 269 102 L 231 102 Z M 231 51.085938 " clip-rule="nonzero"/></clipPath><clipPath id="d8f3cba6bc"><path d="M 268 51.085938 L 288 51.085938 L 288 102 L 268 102 Z M 268 51.085938 " clip-rule="nonzero"/></clipPath><clipPath id="7ded929146"><path d="M 292 51.085938 L 302 51.085938 L 302 102 L 292 102 Z M 292 51.085938 " clip-rule="nonzero"/></clipPath><clipPath id="fe9ee4a4fc"><path d="M 325 62 L 367.175781 62 L 367.175781 114.164062 L 325 114.164062 Z M 325 62 " clip-rule="nonzero"/></clipPath><clipPath id="d9cf5a4498"><path d="M 308 51.085938 L 319 51.085938 L 319 62 L 308 62 Z M 308 51.085938 " clip-rule="nonzero"/></clipPath><clipPath id="8ed85846c0"><path d="M 7.621094 8.277344 L 30 8.277344 L 30 73 L 7.621094 73 Z M 7.621094 8.277344 " clip-rule="nonzero"/></clipPath><clipPath id="c2a4604d58"><path d="M 7.621094 38 L 89.988281 38 L 89.988281 141.234375 L 7.621094 141.234375 Z M 7.621094 38 " clip-rule="nonzero"/></clipPath></defs><g clip-path="url(#f42d976690)"><path fill="#a6a6a6" d="M 100.847656 51.359375 L 110.449219 51.359375 L 110.449219 67.878906 C 113.265625 64.210938 118.394531 62.714844 122.941406 62.714844 C 134.636719 62.714844 143.015625 72.160156 143.015625 82.761719 C 143.085938 87.316406 141.066406 92.957031 137.886719 96.492188 C 134.351562 100.570312 128.792969 102.8125 123.230469 102.8125 C 117.671875 102.8125 112.835938 100.910156 109.660156 96.492188 L 109.660156 101.589844 L 100.847656 101.589844 Z M 109.875 82.289062 C 109.875 88.878906 114.710938 93.980469 121.929688 93.980469 C 128.71875 93.980469 133.410156 89.152344 133.410156 82.832031 C 133.410156 76.507812 128.789062 71.546875 121.929688 71.546875 C 115.503906 71.546875 109.875 76.035156 109.875 82.285156 Z M 109.875 82.289062 " fill-opacity="1" fill-rule="nonzero"/></g><path fill="#a6a6a6" d="M 188.21875 101.589844 L 179.40625 101.589844 L 179.40625 96.492188 C 176.375 100.367188 170.742188 102.8125 165.6875 102.8125 C 159.480469 102.8125 154.425781 100.367188 150.960938 96.492188 C 147.78125 92.890625 145.976562 87.996094 145.976562 82.761719 C 145.976562 77.527344 147.417969 73.179688 151.101562 69.238281 C 155.144531 64.820312 160.125 62.714844 165.976562 62.714844 C 171.460938 62.714844 176.226562 65.023438 179.402344 69.238281 L 179.402344 63.933594 L 188.214844 63.933594 L 188.214844 101.585938 Z M 167.566406 71.550781 C 160.492188 71.484375 155.582031 76.511719 155.582031 83.105469 C 155.582031 89.285156 160.925781 94.046875 167.421875 93.980469 C 174.355469 94.046875 179.117188 89.152344 179.117188 82.699219 C 179.117188 76.242188 174.355469 71.484375 167.566406 71.550781 Z M 167.566406 71.550781 " fill-opacity="1" fill-rule="nonzero"/><g clip-path="url(#fcc99d360f)"><path fill="#a6a6a6" d="M 231.925781 51.359375 L 241.527344 51.359375 L 241.527344 81.675781 L 254.378906 63.933594 L 265.714844 63.933594 L 251.273438 82.351562 L 268.097656 101.585938 L 255.246094 101.585938 L 241.527344 83.984375 L 241.527344 101.585938 L 231.925781 101.585938 Z M 231.925781 51.359375 " fill-opacity="1" fill-rule="nonzero"/></g><g clip-path="url(#d8f3cba6bc)"><path fill="#a6a6a6" d="M 271.929688 72.972656 L 268.535156 72.972656 L 268.535156 64.949219 L 271.929688 64.949219 C 272.144531 57.8125 276.910156 51.425781 284.996094 51.425781 L 287.59375 51.085938 L 287.59375 60.53125 C 283.625 60.53125 281.820312 60.804688 281.527344 64.949219 L 287.089844 64.949219 L 287.089844 72.972656 L 281.527344 72.972656 L 281.527344 101.8125 L 271.929688 101.8125 Z M 271.929688 72.972656 " fill-opacity="1" fill-rule="nonzero"/></g><g clip-path="url(#7ded929146)"><path fill="#a6a6a6" d="M 292.359375 51.359375 L 301.960938 51.359375 L 301.960938 101.589844 L 292.359375 101.589844 Z M 292.359375 51.359375 " fill-opacity="1" fill-rule="nonzero"/></g><path fill="#a6a6a6" d="M 309.019531 63.9375 L 318.621094 63.9375 L 318.621094 101.589844 L 309.019531 101.589844 Z M 309.019531 63.9375 " fill-opacity="1" fill-rule="nonzero"/><g clip-path="url(#fe9ee4a4fc)"><path fill="#a6a6a6" d="M 325.300781 63.9375 L 334.109375 63.9375 L 334.109375 68.832031 C 337.214844 64.6875 341.691406 62.714844 347.105469 62.714844 C 352.957031 62.714844 357.503906 64.480469 361.617188 68.832031 C 365.296875 72.433594 367.175781 77.460938 367.175781 82.761719 C 367.175781 93.433594 358.796875 102.8125 347.101562 102.8125 C 342.050781 102.8125 338.148438 101.25 334.902344 97.511719 L 334.902344 114.160156 L 325.300781 114.160156 Z M 334.324219 82.765625 C 334.324219 86.027344 335.480469 88.953125 338.082031 91.125 C 340.105469 92.824219 343.0625 93.980469 345.734375 93.980469 C 352.519531 93.980469 357.574219 89.019531 357.574219 82.699219 C 357.574219 76.71875 352.589844 71.550781 346.09375 71.550781 C 339.597656 71.550781 334.324219 76.511719 334.324219 82.765625 Z M 334.324219 82.765625 " fill-opacity="1" fill-rule="nonzero"/></g><path fill="#a6a6a6" d="M 221.40625 90.441406 C 217 94.082031 210.210938 93.910156 206.027344 89.972656 C 201.640625 85.84375 201.640625 79.121094 206.027344 74.992188 C 210.265625 70.996094 217.101562 70.867188 221.511719 74.609375 L 228.519531 68.011719 C 224.453125 64.394531 219.21875 62.585938 213.988281 62.585938 C 208.757812 62.585938 203.152344 64.523438 199.03125 68.402344 C 190.785156 76.167969 190.785156 88.796875 199.03125 96.5625 C 207.074219 104.136719 220.148438 104.3125 228.417969 97.035156 L 221.410156 90.441406 Z M 221.40625 90.441406 " fill-opacity="1" fill-rule="nonzero"/><g clip-path="url(#d9cf5a4498)"><path fill="#a6a6a6" d="M 313.441406 61.230469 C 316.414062 61.230469 318.828125 58.960938 318.828125 56.160156 C 318.828125 53.359375 316.414062 51.085938 313.441406 51.085938 C 310.464844 51.085938 308.050781 53.359375 308.050781 56.160156 C 308.050781 58.960938 310.464844 61.230469 313.441406 61.230469 Z M 313.441406 61.230469 " fill-opacity="1" fill-rule="nonzero"/></g><path fill="#a6a6a6" d="M 48.820312 63.859375 C 57.464844 63.839844 63.675781 70.039062 63.605469 78.613281 C 63.539062 87.054688 56.996094 93.515625 48.628906 93.402344 C 40.648438 93.292969 34.011719 86.636719 33.941406 78.675781 C 33.867188 70.292969 40.3125 63.875 48.820312 63.859375 Z M 48.820312 63.859375 " fill-opacity="1" fill-rule="nonzero"/><g clip-path="url(#8ed85846c0)"><path fill="#737373" d="M 29.84375 8.277344 L 7.65625 8.277344 L 7.65625 72.105469 L 29.84375 72.105469 Z M 29.84375 8.277344 " fill-opacity="1" fill-rule="nonzero"/></g><g clip-path="url(#c2a4604d58)"><path fill="#a6a6a6" d="M 72.984375 46.464844 C 54.484375 33.171875 29.511719 37.039062 15.839844 54.496094 C 12.660156 58.550781 9.375 63.792969 7.621094 72.117188 L 29.832031 72.117188 C 30.035156 71.535156 30.335938 70.925781 30.589844 70.367188 C 30.933594 69.570312 31.269531 68.953125 31.644531 68.378906 C 35.140625 62.597656 41.503906 58.730469 48.773438 58.730469 C 57.765625 58.730469 65.367188 64.640625 67.878906 72.777344 C 69.167969 76.78125 68.910156 81.117188 67.554688 85.453125 C 67.492188 85.648438 67.367188 85.933594 67.363281 85.949219 C 66.699219 87.617188 65.804688 89.261719 64.664062 90.847656 C 62.308594 94.113281 58.53125 99.601562 55.085938 104.660156 L 37.738281 129.15625 L 55.476562 141.230469 L 76.371094 111.71875 C 78.402344 108.910156 80.433594 106.101562 82.457031 103.285156 C 95.578125 85.035156 91.015625 59.421875 72.984375 46.464844 Z M 72.984375 46.464844 " fill-opacity="1" fill-rule="nonzero"/></g></svg>